<mxfile host="www.draw.io" modified="2019-11-17T05:19:48.811Z" agent="Mozilla/5.0 (Macintosh; Intel Mac OS X 10_14_6) AppleWebKit/537.36 (KHTML, like Gecko) Chrome/78.0.3904.97 Safari/537.36" etag="HPqX9bHGTg3wxRk_grcW" version="12.2.6" type="github" pages="1">
  <diagram id="6I0OCvxSQrVGMHxT2VVA" name="Page-1">
    <mxGraphModel dx="726" dy="1528" grid="1" gridSize="10" guides="1" tooltips="1" connect="1" arrows="1" fold="1" page="1" pageScale="1" pageWidth="850" pageHeight="1100" math="0" shadow="0">
      <root>
        <mxCell id="0"/>
        <mxCell id="1" parent="0"/>
        <mxCell id="dKdSaXE48SgPbhcamS2K-30" value="" style="whiteSpace=wrap;html=1;strokeColor=none;strokeWidth=1;fillColor=#f5f5f5;fontSize=14;" parent="1" vertex="1">
          <mxGeometry x="194" y="760" width="1096" height="210" as="geometry"/>
        </mxCell>
        <mxCell id="dKdSaXE48SgPbhcamS2K-31" value="" style="whiteSpace=wrap;html=1;strokeColor=none;strokeWidth=1;fillColor=#f5f5f5;fontSize=14;" parent="1" vertex="1">
          <mxGeometry x="194" y="420" width="1096" height="240" as="geometry"/>
        </mxCell>
        <mxCell id="dKdSaXE48SgPbhcamS2K-33" value="Open.HD Base" style="html=1;whiteSpace=wrap;fillColor=#AFFFAF;shape=mxgraph.archimate3.application;appType=node;archiType=square;fontSize=14;verticalAlign=top;" parent="1" vertex="1">
          <mxGeometry x="210" y="815" width="1060" height="145" as="geometry"/>
        </mxCell>
        <mxCell id="dKdSaXE48SgPbhcamS2K-34" style="edgeStyle=elbowEdgeStyle;rounded=1;elbow=vertical;html=1;startSize=10;endArrow=block;endFill=0;endSize=10;jettySize=auto;orthogonalLoop=1;strokeColor=#808080;fontSize=14;dashed=1;exitX=0.5;exitY=0;exitDx=0;exitDy=0;exitPerimeter=0;strokeWidth=2;" parent="1" source="dKdSaXE48SgPbhcamS2K-37" target="dKdSaXE48SgPbhcamS2K-40" edge="1">
          <mxGeometry relative="1" as="geometry"/>
        </mxCell>
        <mxCell id="dKdSaXE48SgPbhcamS2K-35" value="&lt;div&gt;&lt;br&gt;&lt;/div&gt;System&lt;div&gt;Software&lt;/div&gt;" style="html=1;whiteSpace=wrap;fillColor=#AFFFAF;shape=mxgraph.archimate3.tech;techType=sysSw;fontSize=14;" parent="1" vertex="1">
          <mxGeometry x="482.5" y="857.5" width="140" height="60" as="geometry"/>
        </mxCell>
        <mxCell id="dKdSaXE48SgPbhcamS2K-36" style="edgeStyle=elbowEdgeStyle;rounded=1;elbow=vertical;html=1;startSize=10;endArrow=block;endFill=0;endSize=10;jettySize=auto;orthogonalLoop=1;strokeColor=#808080;fontSize=14;dashed=1;strokeWidth=2;exitX=0.5;exitY=0;exitDx=0;exitDy=0;exitPerimeter=0;" parent="1" source="7QAjqBn24WtBQ80JvCML-49" target="dKdSaXE48SgPbhcamS2K-45" edge="1">
          <mxGeometry relative="1" as="geometry"/>
        </mxCell>
        <mxCell id="dKdSaXE48SgPbhcamS2K-37" value="&lt;div&gt;rssi_qgc_forward&lt;/div&gt;" style="html=1;whiteSpace=wrap;fillColor=#AFFFAF;shape=mxgraph.archimate3.tech;techType=sysSw;fontSize=14;" parent="1" vertex="1">
          <mxGeometry x="888" y="850" width="140" height="60" as="geometry"/>
        </mxCell>
        <mxCell id="7QAjqBn24WtBQ80JvCML-18" style="edgeStyle=orthogonalEdgeStyle;rounded=1;orthogonalLoop=1;jettySize=auto;html=1;exitX=0.5;exitY=0;exitDx=0;exitDy=0;exitPerimeter=0;entryX=0.5;entryY=1;entryDx=0;entryDy=0;strokeWidth=2;" parent="1" source="dKdSaXE48SgPbhcamS2K-40" target="dKdSaXE48SgPbhcamS2K-53" edge="1">
          <mxGeometry relative="1" as="geometry"/>
        </mxCell>
        <mxCell id="dKdSaXE48SgPbhcamS2K-40" value="UDP 5155" style="html=1;whiteSpace=wrap;fillColor=#AFFFAF;shape=mxgraph.archimate3.service;fontSize=14;" parent="1" vertex="1">
          <mxGeometry x="883" y="680" width="150" height="50" as="geometry"/>
        </mxCell>
        <mxCell id="7QAjqBn24WtBQ80JvCML-19" style="edgeStyle=orthogonalEdgeStyle;rounded=1;orthogonalLoop=1;jettySize=auto;html=1;exitX=0.5;exitY=0;exitDx=0;exitDy=0;exitPerimeter=0;entryX=0.5;entryY=1;entryDx=0;entryDy=0;strokeWidth=2;" parent="1" source="dKdSaXE48SgPbhcamS2K-45" target="7QAjqBn24WtBQ80JvCML-9" edge="1">
          <mxGeometry relative="1" as="geometry"/>
        </mxCell>
        <mxCell id="dKdSaXE48SgPbhcamS2K-45" value="UDP 14550" style="html=1;whiteSpace=wrap;fillColor=#AFFFAF;shape=mxgraph.archimate3.service;fontSize=14;" parent="1" vertex="1">
          <mxGeometry x="1085" y="680" width="150" height="50" as="geometry"/>
        </mxCell>
        <mxCell id="dKdSaXE48SgPbhcamS2K-47" value="QOpenHDSettings" style="shape=component;align=center;fillColor=#99ffff;gradientColor=none;fontSize=14;" parent="1" vertex="1">
          <mxGeometry x="254" y="555" width="185" height="80" as="geometry"/>
        </mxCell>
        <mxCell id="dKdSaXE48SgPbhcamS2K-49" value="QOpenHDVideoStream" style="shape=component;align=center;fillColor=#99ffff;gradientColor=none;fontSize=14;" parent="1" vertex="1">
          <mxGeometry x="460" y="440" width="390" height="80" as="geometry"/>
        </mxCell>
        <mxCell id="dKdSaXE48SgPbhcamS2K-51" value="LocalMessage" style="shape=component;align=center;fillColor=#99ffff;gradientColor=none;fontSize=14;" parent="1" vertex="1">
          <mxGeometry x="254" y="440" width="185" height="80" as="geometry"/>
        </mxCell>
        <mxCell id="7QAjqBn24WtBQ80JvCML-12" style="edgeStyle=orthogonalEdgeStyle;orthogonalLoop=1;jettySize=auto;html=1;exitX=0;exitY=0.3;exitDx=0;exitDy=0;entryX=0.238;entryY=1.03;entryDx=0;entryDy=0;entryPerimeter=0;strokeWidth=2;rounded=1;endArrow=none;endFill=0;" parent="1" source="dKdSaXE48SgPbhcamS2K-53" target="7QAjqBn24WtBQ80JvCML-11" edge="1">
          <mxGeometry relative="1" as="geometry">
            <mxPoint x="958" y="519" as="targetPoint"/>
            <Array as="points">
              <mxPoint x="860" y="580"/>
              <mxPoint x="860" y="540"/>
              <mxPoint x="958" y="540"/>
            </Array>
          </mxGeometry>
        </mxCell>
        <mxCell id="dKdSaXE48SgPbhcamS2K-53" value="OpenHDTelemetry" style="shape=component;align=center;fillColor=#99ffff;gradientColor=none;fontSize=14;" parent="1" vertex="1">
          <mxGeometry x="865.5" y="555" width="185" height="80" as="geometry"/>
        </mxCell>
        <mxCell id="dKdSaXE48SgPbhcamS2K-58" value="C++" style="text;html=1;strokeColor=none;fillColor=none;align=center;verticalAlign=middle;whiteSpace=wrap;fontSize=24;strokeWidth=1;" parent="1" vertex="1">
          <mxGeometry x="1290" y="550" width="240" height="20" as="geometry"/>
        </mxCell>
        <mxCell id="dKdSaXE48SgPbhcamS2K-60" value="UI" style="text;html=1;strokeColor=none;fillColor=none;align=center;verticalAlign=middle;whiteSpace=wrap;fontSize=24;" parent="1" vertex="1">
          <mxGeometry x="1290" y="195" width="240" height="20" as="geometry"/>
        </mxCell>
        <mxCell id="dKdSaXE48SgPbhcamS2K-63" value="QOpenHD" style="text;strokeColor=none;fillColor=none;html=1;fontSize=24;fontStyle=1;verticalAlign=middle;align=center;" parent="1" vertex="1">
          <mxGeometry x="52.5" y="-90" width="1590" height="40" as="geometry"/>
        </mxCell>
        <mxCell id="7QAjqBn24WtBQ80JvCML-7" value="" style="whiteSpace=wrap;html=1;strokeColor=none;strokeWidth=1;fillColor=#f5f5f5;fontSize=14;" parent="1" vertex="1">
          <mxGeometry x="200" y="10" width="1090" height="390" as="geometry"/>
        </mxCell>
        <mxCell id="dKdSaXE48SgPbhcamS2K-57" value="ApplicationWindow" style="html=1;whiteSpace=wrap;fillColor=#ffcd28;shape=mxgraph.archimate3.application;appType=proc;archiType=rounded;fontSize=14;strokeColor=#d79b00;gradientColor=#ffa500;" parent="1" vertex="1">
          <mxGeometry x="210" y="298" width="1065" height="75" as="geometry"/>
        </mxCell>
        <mxCell id="7QAjqBn24WtBQ80JvCML-28" style="edgeStyle=orthogonalEdgeStyle;rounded=1;orthogonalLoop=1;jettySize=auto;html=1;exitX=0;exitY=0.3;exitDx=0;exitDy=0;entryX=0.75;entryY=1;entryDx=0;entryDy=0;strokeWidth=2;endArrow=none;endFill=0;" parent="1" source="7QAjqBn24WtBQ80JvCML-9" target="7QAjqBn24WtBQ80JvCML-11" edge="1">
          <mxGeometry relative="1" as="geometry">
            <Array as="points">
              <mxPoint x="1060" y="580"/>
              <mxPoint x="1060" y="535"/>
              <mxPoint x="1158" y="535"/>
            </Array>
          </mxGeometry>
        </mxCell>
        <mxCell id="7QAjqBn24WtBQ80JvCML-9" value="MavlinkTelemetry" style="shape=component;align=center;fillColor=#99ffff;gradientColor=none;fontSize=14;" parent="1" vertex="1">
          <mxGeometry x="1084" y="555" width="185" height="80" as="geometry"/>
        </mxCell>
        <mxCell id="7QAjqBn24WtBQ80JvCML-10" value="OpenHDPi" style="shape=component;align=center;fillColor=#99ffff;gradientColor=none;fontSize=14;" parent="1" vertex="1">
          <mxGeometry x="662.5" y="555" width="185" height="80" as="geometry"/>
        </mxCell>
        <mxCell id="7QAjqBn24WtBQ80JvCML-11" value="OpenHD" style="shape=component;align=center;fillColor=#99ffff;gradientColor=none;fontSize=14;" parent="1" vertex="1">
          <mxGeometry x="865" y="440" width="405" height="80" as="geometry"/>
        </mxCell>
        <mxCell id="7QAjqBn24WtBQ80JvCML-36" style="edgeStyle=orthogonalEdgeStyle;rounded=1;orthogonalLoop=1;jettySize=auto;html=1;exitX=0.5;exitY=0;exitDx=0;exitDy=0;exitPerimeter=0;strokeWidth=2;fontSize=24;" parent="1" source="7QAjqBn24WtBQ80JvCML-15" target="dKdSaXE48SgPbhcamS2K-49" edge="1">
          <mxGeometry relative="1" as="geometry">
            <Array as="points">
              <mxPoint x="553" y="560"/>
              <mxPoint x="655" y="560"/>
            </Array>
          </mxGeometry>
        </mxCell>
        <mxCell id="7QAjqBn24WtBQ80JvCML-15" value="UDP 5600" style="html=1;whiteSpace=wrap;fillColor=#AFFFAF;shape=mxgraph.archimate3.service;fontSize=14;" parent="1" vertex="1">
          <mxGeometry x="477.5" y="680" width="150" height="50" as="geometry"/>
        </mxCell>
        <mxCell id="7QAjqBn24WtBQ80JvCML-16" style="edgeStyle=elbowEdgeStyle;rounded=1;elbow=vertical;html=1;startSize=10;endArrow=block;endFill=0;endSize=10;jettySize=auto;orthogonalLoop=1;strokeColor=#808080;fontSize=14;dashed=1;exitX=0.5;exitY=0;exitDx=0;exitDy=0;exitPerimeter=0;strokeWidth=2;" parent="1" source="dKdSaXE48SgPbhcamS2K-35" edge="1">
          <mxGeometry relative="1" as="geometry">
            <mxPoint x="510" y="810" as="sourcePoint"/>
            <mxPoint x="552.5000000000002" y="730" as="targetPoint"/>
          </mxGeometry>
        </mxCell>
        <mxCell id="7QAjqBn24WtBQ80JvCML-20" value="HUDOverlayGrid" style="html=1;whiteSpace=wrap;fillColor=#d5e8d4;shape=mxgraph.archimate3.application;appType=proc;archiType=rounded;fontSize=14;gradientColor=#97d077;strokeColor=#82b366;" parent="1" vertex="1">
          <mxGeometry x="210" y="210" width="1065" height="75" as="geometry"/>
        </mxCell>
        <mxCell id="7QAjqBn24WtBQ80JvCML-21" value="SettingsPopup" style="html=1;whiteSpace=wrap;fillColor=#dae8fc;shape=mxgraph.archimate3.application;appType=proc;archiType=rounded;fontSize=14;gradientColor=#7ea6e0;strokeColor=#6c8ebf;" parent="1" vertex="1">
          <mxGeometry x="210" y="30" width="1065" height="75" as="geometry"/>
        </mxCell>
        <mxCell id="7QAjqBn24WtBQ80JvCML-23" style="edgeStyle=orthogonalEdgeStyle;rounded=1;orthogonalLoop=1;jettySize=auto;html=1;exitX=0;exitY=0.5;exitDx=0;exitDy=0;exitPerimeter=0;entryX=0;entryY=0.7;entryDx=0;entryDy=0;strokeWidth=2;endArrow=none;endFill=0;" parent="1" source="7QAjqBn24WtBQ80JvCML-22" target="dKdSaXE48SgPbhcamS2K-51" edge="1">
          <mxGeometry relative="1" as="geometry"/>
        </mxCell>
        <mxCell id="7QAjqBn24WtBQ80JvCML-24" style="edgeStyle=orthogonalEdgeStyle;rounded=1;orthogonalLoop=1;jettySize=auto;html=1;exitX=0;exitY=0.5;exitDx=0;exitDy=0;exitPerimeter=0;entryX=0;entryY=0.7;entryDx=0;entryDy=0;strokeWidth=2;endArrow=none;endFill=0;startArrow=classic;startFill=1;" parent="1" source="7QAjqBn24WtBQ80JvCML-22" target="dKdSaXE48SgPbhcamS2K-47" edge="1">
          <mxGeometry relative="1" as="geometry"/>
        </mxCell>
        <mxCell id="7QAjqBn24WtBQ80JvCML-22" value="BaseWidget (subclass)" style="html=1;whiteSpace=wrap;fillColor=#fff2cc;shape=mxgraph.archimate3.application;appType=proc;archiType=rounded;fontSize=14;gradientColor=#ffd966;strokeColor=#D6B656;" parent="1" vertex="1">
          <mxGeometry x="210" y="120" width="140" height="75" as="geometry"/>
        </mxCell>
        <mxCell id="7QAjqBn24WtBQ80JvCML-26" value="VideoItem" style="html=1;whiteSpace=wrap;fillColor=#f8cecc;shape=mxgraph.archimate3.application;appType=proc;archiType=rounded;fontSize=14;strokeColor=#b85450;gradientColor=#ea6b66;" parent="1" vertex="1">
          <mxGeometry x="220" y="308" width="340" height="54" as="geometry"/>
        </mxCell>
        <mxCell id="7QAjqBn24WtBQ80JvCML-27" style="edgeStyle=orthogonalEdgeStyle;rounded=1;orthogonalLoop=1;jettySize=auto;html=1;exitX=0;exitY=0.3;exitDx=0;exitDy=0;entryX=0.5;entryY=1;entryDx=0;entryDy=0;entryPerimeter=0;strokeWidth=2;" parent="1" source="dKdSaXE48SgPbhcamS2K-49" target="7QAjqBn24WtBQ80JvCML-26" edge="1">
          <mxGeometry relative="1" as="geometry">
            <Array as="points">
              <mxPoint x="450" y="464"/>
              <mxPoint x="450" y="400"/>
              <mxPoint x="390" y="400"/>
            </Array>
          </mxGeometry>
        </mxCell>
        <mxCell id="7QAjqBn24WtBQ80JvCML-30" value="Open.HD" style="text;html=1;strokeColor=none;fillColor=none;align=center;verticalAlign=middle;whiteSpace=wrap;fontSize=24;strokeWidth=1;" parent="1" vertex="1">
          <mxGeometry x="1290" y="805" width="240" height="20" as="geometry"/>
        </mxCell>
        <mxCell id="7QAjqBn24WtBQ80JvCML-37" value="BaseWidget (subclass)" style="html=1;whiteSpace=wrap;fillColor=#fff2cc;shape=mxgraph.archimate3.application;appType=proc;archiType=rounded;fontSize=14;gradientColor=#ffd966;strokeColor=#d6b656;" parent="1" vertex="1">
          <mxGeometry x="360" y="120" width="140" height="75" as="geometry"/>
        </mxCell>
        <mxCell id="7QAjqBn24WtBQ80JvCML-38" value="BaseWidget (subclass)" style="html=1;whiteSpace=wrap;fillColor=#fff2cc;shape=mxgraph.archimate3.application;appType=proc;archiType=rounded;fontSize=14;gradientColor=#ffd966;strokeColor=#d6b656;" parent="1" vertex="1">
          <mxGeometry x="515" y="120" width="140" height="75" as="geometry"/>
        </mxCell>
        <mxCell id="7QAjqBn24WtBQ80JvCML-39" value="BaseWidget (subclass)" style="html=1;whiteSpace=wrap;fillColor=#fff2cc;shape=mxgraph.archimate3.application;appType=proc;archiType=rounded;fontSize=14;gradientColor=#ffd966;strokeColor=#d6b656;" parent="1" vertex="1">
          <mxGeometry x="670" y="120" width="140" height="75" as="geometry"/>
        </mxCell>
        <mxCell id="7QAjqBn24WtBQ80JvCML-40" value="BaseWidget (subclass)" style="html=1;whiteSpace=wrap;fillColor=#fff2cc;shape=mxgraph.archimate3.application;appType=proc;archiType=rounded;fontSize=14;gradientColor=#ffd966;strokeColor=#d6b656;" parent="1" vertex="1">
          <mxGeometry x="825" y="120" width="140" height="75" as="geometry"/>
        </mxCell>
        <mxCell id="7QAjqBn24WtBQ80JvCML-41" value="BaseWidget (subclass)" style="html=1;whiteSpace=wrap;fillColor=#fff2cc;shape=mxgraph.archimate3.application;appType=proc;archiType=rounded;fontSize=14;gradientColor=#ffd966;strokeColor=#d6b656;" parent="1" vertex="1">
          <mxGeometry x="980" y="120" width="140" height="75" as="geometry"/>
        </mxCell>
        <mxCell id="7QAjqBn24WtBQ80JvCML-42" value="BaseWidget (subclass)" style="html=1;whiteSpace=wrap;fillColor=#fff2cc;shape=mxgraph.archimate3.application;appType=proc;archiType=rounded;fontSize=14;gradientColor=#ffd966;strokeColor=#d6b656;" parent="1" vertex="1">
          <mxGeometry x="1135" y="120" width="140" height="75" as="geometry"/>
        </mxCell>
        <mxCell id="7QAjqBn24WtBQ80JvCML-44" style="edgeStyle=orthogonalEdgeStyle;rounded=1;orthogonalLoop=1;jettySize=auto;html=1;exitX=0;exitY=0.3;exitDx=0;exitDy=0;strokeWidth=2;fontSize=24;entryX=0;entryY=0.531;entryDx=0;entryDy=0;entryPerimeter=0;" parent="1" source="dKdSaXE48SgPbhcamS2K-47" target="7QAjqBn24WtBQ80JvCML-21" edge="1">
          <mxGeometry relative="1" as="geometry">
            <mxPoint x="170" y="69" as="targetPoint"/>
            <Array as="points">
              <mxPoint x="140" y="579"/>
              <mxPoint x="140" y="70"/>
            </Array>
          </mxGeometry>
        </mxCell>
        <mxCell id="7QAjqBn24WtBQ80JvCML-46" style="edgeStyle=orthogonalEdgeStyle;rounded=1;orthogonalLoop=1;jettySize=auto;html=1;exitX=0.5;exitY=0;exitDx=0;exitDy=0;exitPerimeter=0;entryX=0.5;entryY=1;entryDx=0;entryDy=0;strokeWidth=2;fontSize=24;startArrow=classic;startFill=1;" parent="1" source="7QAjqBn24WtBQ80JvCML-45" target="dKdSaXE48SgPbhcamS2K-47" edge="1">
          <mxGeometry relative="1" as="geometry"/>
        </mxCell>
        <mxCell id="7QAjqBn24WtBQ80JvCML-45" value="UDP 5115" style="html=1;whiteSpace=wrap;fillColor=#AFFFAF;shape=mxgraph.archimate3.service;fontSize=14;" parent="1" vertex="1">
          <mxGeometry x="271.5" y="680" width="150" height="50" as="geometry"/>
        </mxCell>
        <mxCell id="7QAjqBn24WtBQ80JvCML-48" style="edgeStyle=elbowEdgeStyle;rounded=1;orthogonalLoop=1;jettySize=auto;html=1;exitX=0.5;exitY=0;exitDx=0;exitDy=0;exitPerimeter=0;entryX=0.5;entryY=1;entryDx=0;entryDy=0;entryPerimeter=0;strokeWidth=2;fontSize=24;dashed=1;strokeColor=#808080;startArrow=block;startFill=0;endSize=10;startSize=10;endArrow=block;endFill=0;elbow=vertical;" parent="1" source="7QAjqBn24WtBQ80JvCML-47" target="7QAjqBn24WtBQ80JvCML-45" edge="1">
          <mxGeometry relative="1" as="geometry"/>
        </mxCell>
        <mxCell id="7QAjqBn24WtBQ80JvCML-47" value="&lt;div&gt;RemoteSettings.py&lt;/div&gt;" style="html=1;whiteSpace=wrap;fillColor=#AFFFAF;shape=mxgraph.archimate3.tech;techType=sysSw;fontSize=14;" parent="1" vertex="1">
          <mxGeometry x="255" y="857.5" width="184" height="60" as="geometry"/>
        </mxCell>
        <mxCell id="7QAjqBn24WtBQ80JvCML-49" value="mavlink-routerd" style="html=1;whiteSpace=wrap;fillColor=#AFFFAF;shape=mxgraph.archimate3.tech;techType=sysSw;fontSize=14;" parent="1" vertex="1">
          <mxGeometry x="1075" y="850" width="170" height="60" as="geometry"/>
        </mxCell>
      </root>
    </mxGraphModel>
  </diagram>
</mxfile>
